<?xml version="1.0" encoding="UTF-8" standalone="no"?>
<!-- Created with Inkscape (http://www.inkscape.org/) -->

<svg
   xmlns:dc="http://purl.org/dc/elements/1.1/"
   xmlns:cc="http://creativecommons.org/ns#"
   xmlns:rdf="http://www.w3.org/1999/02/22-rdf-syntax-ns#"
   xmlns:svg="http://www.w3.org/2000/svg"
   xmlns="http://www.w3.org/2000/svg"
   xmlns:sodipodi="http://sodipodi.sourceforge.net/DTD/sodipodi-0.dtd"
   xmlns:inkscape="http://www.inkscape.org/namespaces/inkscape"
   id="svg2"
   version="1.1"
   inkscape:version="0.92.5 (2060ec1f9f, 2020-04-08)"
   width="92.903642"
   height="69.180522"
   xml:space="preserve"
   sodipodi:docname="proteus.svg"
   inkscape:export-filename="/home/cekees/cekees.github.io/assets/images/proteus.png"
   inkscape:export-xdpi="96"
   inkscape:export-ydpi="96"><metadata
     id="metadata8"><rdf:RDF><cc:Work
         rdf:about=""><dc:format>image/svg+xml</dc:format><dc:type
           rdf:resource="http://purl.org/dc/dcmitype/StillImage" /><dc:title /></cc:Work></rdf:RDF></metadata><defs
     id="defs6" /><sodipodi:namedview
     pagecolor="#ffffff"
     bordercolor="#666666"
     borderopacity="1"
     objecttolerance="10"
     gridtolerance="10"
     guidetolerance="10"
     inkscape:pageopacity="0"
     inkscape:pageshadow="2"
     inkscape:window-width="1843"
     inkscape:window-height="1109"
     id="namedview4"
     showgrid="false"
     inkscape:zoom="13.661303"
     inkscape:cx="44.603096"
     inkscape:cy="41.654722"
     inkscape:window-x="72"
     inkscape:window-y="27"
     inkscape:window-maximized="0"
     inkscape:current-layer="g12" /><g
     id="g10"
     inkscape:groupmode="layer"
     inkscape:label="corps_logo"
     transform="matrix(1.25,0,0,-1.25,0,69.180522)"><g
       id="g12"><path
         d="M 43.80736,-0.10498647 C 15.812285,-0.3726255 -0.89483379,16.175898 0.09442946,33.930727 L 0.16234168,212.0185 C -0.84305086,233.14472 18.128391,238.67846 40.682518,238.66119 l 317.766162,1.23062 c 25.87138,-0.11654 41.5182,-3.32777 40.96981,-30.25571 L 399.87293,35.707641 C 402.05577,14.697975 384.07614,1.2739901 362.02739,1.6106972 Z M 363.09815,22.266388 c 11.77976,0.435993 13.19193,6.100715 12.28869,12.303898 l 0.0171,176.974164 c 0.043,10.57174 -3.60815,10.45405 -14.69435,10.62241 L 41.016848,220.87183 C 34.000606,220.41425 25.263483,219.73095 26.145217,212.0428 L 28.559802,34.604481 C 29.00067,25.785342 32.06085,21.912414 43.378236,21.74406 Z"
         style="fill:#ff0000;fill-opacity:1;fill-rule:nonzero;stroke:none;stroke-width:1.39995027;stroke-linecap:butt;stroke-linejoin:miter;stroke-miterlimit:4;stroke-dasharray:none;stroke-opacity:1"
         id="path30"
         inkscape:connector-curvature="0"
         sodipodi:nodetypes="cccccccccccccccccc" /><path
         style="color:#000000;display:inline;overflow:visible;visibility:visible;fill:#ff0000;fill-opacity:1;fill-rule:nonzero;stroke:#000000;stroke-width:0;stroke-linecap:round;stroke-linejoin:bevel;stroke-miterlimit:4;stroke-dasharray:none;stroke-dashoffset:0;stroke-opacity:1;marker:none;enable-background:accumulate"
         d="m 50.979374,211.64009 c -5.180075,0 -9.408754,-3.39523 -9.408754,-7.55433 V 40.804356 c 0,-4.159105 4.228679,-7.554329 9.408754,-7.554329 H 352.86596 c 5.18007,0 9.27434,3.395224 9.27434,7.554329 V 204.08576 c 0,4.1591 -4.09427,7.55433 -9.27434,7.55433 z M 335.39256,193.61762 C 303.9107,151.02268 288.4176,118.63429 277.59593,66.704907 L 223.29398,66.597024 223.69721,42.207337 193.05155,42.099419 192.11068,66.812864 141.169,66.489127 C 130.28032,116.8466 107.41294,156.11863 72.350686,193.07805 96.181646,176.92881 121.12638,162.69163 148.02395,152.82427 l -30.64566,4.5326 41.26411,-71.442357 32.66181,-0.215853 c 5.57711,26.16108 7.99635,50.13911 0.94088,74.78785 l -22.58101,-4.31676 c 17.79654,10.80332 32.96978,23.82988 38.17266,36.90829 5.36718,-13.57425 18.37608,-26.61736 36.02208,-37.66373 l -22.71541,4.74844 c -7.91362,-24.61127 -7.96652,-48.19415 0.80646,-73.816577 l 39.11353,-0.215854 31.31771,67.125601 c -0.65655,0.0586 -24.88369,-2.5286 -27.41979,-2.2663 27.86781,10.58555 46.18532,22.66854 70.43124,42.628 z"
         id="rect3775"
         inkscape:connector-curvature="0" /><path
         style="fill:none;stroke:#000000;stroke-width:0;stroke-linecap:round;stroke-linejoin:bevel;stroke-miterlimit:4;stroke-dasharray:none;stroke-opacity:1"
         d="M 124.70224,71.855069 C 124.23365,72.850978 86.648688,173.8225 86.648688,174.08546 c 0,0.15624 5.358009,-1.86809 11.906687,-4.49851 l 11.906685,-4.78259 14.08382,-36.42008 14.08382,-36.420089 5.28852,-0.217758 c 2.90869,-0.119746 10.54808,-0.334474 16.97642,-0.477142 l 11.68789,-0.259362 -0.0125,2.264617 c -0.007,1.245543 -0.78489,17.693574 -1.72903,36.551184 l -1.71662,34.28655 9.14745,9.23841 9.14744,9.23841 0.74998,-0.983 c 0.41248,-0.54065 3.88659,-5.04831 7.72021,-10.01704 l 6.97021,-9.03405 V 127.12177 91.688521 l 10.79738,0.231352 c 5.93856,0.127278 14.73905,0.331573 19.55663,0.453994 l 8.75923,0.22265 12.51339,29.892233 c 6.88237,16.44073 13.65607,32.56156 15.05267,35.82408 l 2.53928,5.93185 18.68381,8.26964 c 10.2761,4.5483 18.72646,8.23345 18.77859,8.18922 0.0521,-0.0443 -4.64826,-24.36687 -10.44531,-54.05031 l -10.54007,-53.969917 -1.55057,-0.25118 c -0.85282,-0.138101 -34.1097,-0.429109 -73.90419,-0.646539 -90.07158,-0.49222 -88.13332,-0.493739 -88.39832,0.06953 z"
         id="path3792"
         inkscape:connector-curvature="0" /><path
         style="fill:none;stroke:#000000;stroke-width:0;stroke-linecap:round;stroke-linejoin:bevel;stroke-miterlimit:4;stroke-dasharray:none;stroke-opacity:1"
         d="M 124.70224,71.855069 C 124.23365,72.850978 86.648688,173.8225 86.648688,174.08546 c 0,0.15624 5.358009,-1.86809 11.906687,-4.49851 l 11.906685,-4.78259 14.08382,-36.42008 14.08382,-36.420089 5.28852,-0.217758 c 2.90869,-0.119746 10.54808,-0.334474 16.97642,-0.477142 l 11.68789,-0.259362 -0.0125,2.264617 c -0.007,1.245543 -0.78489,17.693574 -1.72903,36.551184 l -1.71662,34.28655 9.14745,9.23841 9.14744,9.23841 0.74998,-0.983 c 0.41248,-0.54065 3.88659,-5.04831 7.72021,-10.01704 l 6.97021,-9.03405 V 127.12177 91.688521 l 10.79738,0.231352 c 5.93856,0.127278 14.73905,0.331573 19.55663,0.453994 l 8.75923,0.22265 12.51339,29.892233 c 6.88237,16.44073 13.65607,32.56156 15.05267,35.82408 l 2.53928,5.93185 18.68381,8.26964 c 10.2761,4.5483 18.72646,8.23345 18.77859,8.18922 0.0521,-0.0443 -4.64826,-24.36687 -10.44531,-54.05031 l -10.54007,-53.969917 -1.55057,-0.25118 c -0.85282,-0.138101 -34.1097,-0.429109 -73.90419,-0.646539 -90.07158,-0.49222 -88.13332,-0.493739 -88.39832,0.06953 z"
         id="path3794"
         inkscape:connector-curvature="0" /><path
         style="fill:none;stroke:#000000;stroke-width:0;stroke-linecap:round;stroke-linejoin:bevel;stroke-miterlimit:4;stroke-dasharray:none;stroke-opacity:1"
         d="M 124.70224,71.855069 C 124.23365,72.850978 86.648688,173.8225 86.648688,174.08546 c 0,0.15624 5.358009,-1.86809 11.906687,-4.49851 l 11.906685,-4.78259 14.08382,-36.42008 14.08382,-36.420089 5.28852,-0.217758 c 2.90869,-0.119746 10.54808,-0.334474 16.97642,-0.477142 l 11.68789,-0.259362 -0.0125,2.264617 c -0.007,1.245543 -0.78489,17.693574 -1.72903,36.551184 l -1.71662,34.28655 9.14745,9.23841 9.14744,9.23841 0.74998,-0.983 c 0.41248,-0.54065 3.88659,-5.04831 7.72021,-10.01704 l 6.97021,-9.03405 V 127.12177 91.688521 l 10.79738,0.231352 c 5.93856,0.127278 49.30599,-0.07619 44.4908,0.0965 l -16.17494,0.580103 12.51339,29.892224 c 6.88237,16.44073 13.65607,32.56157 15.05267,35.82409 l 2.53928,5.93185 18.68381,8.26964 c 10.2761,4.5483 18.72646,8.23345 18.77859,8.18922 0.0521,-0.0443 -4.64826,-24.36687 -10.44531,-54.05031 l -10.54009,-53.969905 -1.55057,-0.25118 c -0.85282,-0.138101 -34.1097,-0.429109 -73.90419,-0.646543 -90.07158,-0.492216 -88.13332,-0.493736 -88.39832,0.06953 z"
         id="path3796"
         inkscape:connector-curvature="0"
         sodipodi:nodetypes="csscccssccscccsscccsscsscscscsscc" /></g></g></svg>